<svg width="480" height="361" viewBox="0 0 480 361" fill="none" xmlns="http://www.w3.org/2000/svg">
<g opacity="0.1">
<mask id="mask0_1_470" style="mask-type:alpha" maskUnits="userSpaceOnUse" x="0" y="0" width="480" height="361">
<rect x="479.5" y="0.5" width="360" height="479" transform="rotate(90 479.5 0.5)" fill="url(#paint0_linear_1_470)" stroke="#6246E5"/>
</mask>
<g mask="url(#mask0_1_470)">
<path d="M236.505 453.92C167.172 453.92 110.966 397.635 110.966 328.202C110.966 258.769 167.172 202.484 236.505 202.484C305.838 202.484 362.045 258.769 362.045 328.202C362.045 397.635 305.838 453.92 236.505 453.92Z" stroke="#6246E5"/>
<path d="M249.773 458.902C172.197 458.902 109.307 395.925 109.307 318.237C109.307 240.55 172.197 177.573 249.773 177.573C327.349 177.573 390.238 240.55 390.238 318.237C390.238 395.925 327.349 458.902 249.773 458.902Z" stroke="#6246E5"/>
<path d="M260.552 463.885C175.649 463.885 106.82 394.959 106.82 309.934C106.82 224.909 175.649 155.983 260.552 155.983C345.456 155.983 414.285 224.909 414.285 309.934C414.285 394.959 345.456 463.885 260.552 463.885Z" stroke="#6246E5"/>
<path d="M276.308 467.206C184.993 467.206 110.966 393.076 110.966 301.63C110.966 210.184 184.993 136.054 276.308 136.054C367.622 136.054 441.649 210.184 441.649 301.63C441.649 393.076 367.622 467.206 276.308 467.206Z" stroke="#6246E5"/>
<path d="M291.648 470.528C194.15 470.528 115.112 391.378 115.112 293.742C115.112 196.105 194.15 116.955 291.648 116.955C389.145 116.955 468.183 196.105 468.183 293.742C468.183 391.379 389.145 470.528 291.648 470.528Z" stroke="#6246E5"/>
<path d="M309.061 474.68C201.947 474.68 115.112 387.723 115.112 280.456C115.112 173.188 201.947 86.2314 309.061 86.2314C416.175 86.2314 503.01 173.188 503.01 280.456C503.01 387.723 416.175 474.68 309.061 474.68Z" stroke="#6246E5"/>
</g>
</g>
<defs>
<linearGradient id="paint0_linear_1_470" x1="736.035" y1="13.4669" x2="487.704" y2="484.066" gradientUnits="userSpaceOnUse">
<stop stop-color="#747DEF"/>
<stop offset="1" stop-color="#5E3BE1"/>
</linearGradient>
</defs>
</svg>
