<svg width="65" height="65" viewBox="0 0 65 65" fill="none" xmlns="http://www.w3.org/2000/svg">
<g filter="url(#filter0_d_108_73)">
<path fill-rule="evenodd" clip-rule="evenodd" d="M32.5 53C44.9264 53 55 42.9264 55 30.5C55 18.0736 44.9264 8 32.5 8C20.0736 8 10 18.0736 10 30.5C10 42.9264 20.0736 53 32.5 53Z" fill="url(#paint0_angular_108_73)"/>
</g>
<g clip-path="url(#clip0_108_73)">
<path d="M38.6562 22H27.3438C26.0516 22 25 23.0516 25 24.3438V35.6562C25 36.9487 26.0516 38 27.3438 38H38.6562C39.9487 38 41 36.9487 41 35.6562V24.3438C41 23.0516 39.9487 22 38.6562 22ZM40.0625 35.6562C40.0625 36.4316 39.4316 37.0625 38.6562 37.0625H27.3438C26.5684 37.0625 25.9375 36.4316 25.9375 35.6562V24.3438C25.9375 23.5684 26.5684 22.9375 27.3438 22.9375H38.6562C39.4316 22.9375 40.0625 23.5684 40.0625 24.3438V35.6562Z" fill="white"/>
<path d="M38.1562 23.9062C37.6394 23.9062 37.2188 24.3269 37.2188 24.8438C37.2188 25.3606 37.6394 25.7812 38.1562 25.7812C38.6731 25.7812 39.0938 25.3606 39.0938 24.8438C39.0938 24.3269 38.6731 23.9062 38.1562 23.9062Z" fill="white"/>
<path d="M33 25.7812C30.6737 25.7812 28.7812 27.6737 28.7812 30C28.7812 32.3263 30.6737 34.2188 33 34.2188C35.3263 34.2188 37.2188 32.3263 37.2188 30C37.2188 27.6737 35.3263 25.7812 33 25.7812ZM33 33.2812C31.1906 33.2812 29.7188 31.8094 29.7188 30C29.7188 28.1906 31.1906 26.7188 33 26.7188C34.8094 26.7188 36.2812 28.1906 36.2812 30C36.2812 31.8094 34.8094 33.2812 33 33.2812Z" fill="white"/>
</g>
<defs>
<filter id="filter0_d_108_73" x="0" y="0" width="65" height="65" filterUnits="userSpaceOnUse" color-interpolation-filters="sRGB">
<feFlood flood-opacity="0" result="BackgroundImageFix"/>
<feColorMatrix in="SourceAlpha" type="matrix" values="0 0 0 0 0 0 0 0 0 0 0 0 0 0 0 0 0 0 127 0" result="hardAlpha"/>
<feOffset dy="2"/>
<feGaussianBlur stdDeviation="5"/>
<feColorMatrix type="matrix" values="0 0 0 0 0 0 0 0 0 0 0 0 0 0 0 0 0 0 0.1 0"/>
<feBlend mode="normal" in2="BackgroundImageFix" result="effect1_dropShadow_108_73"/>
<feBlend mode="normal" in="SourceGraphic" in2="effect1_dropShadow_108_73" result="shape"/>
</filter>
<radialGradient id="paint0_angular_108_73" cx="0" cy="0" r="1" gradientUnits="userSpaceOnUse" gradientTransform="translate(32.5 30.5) rotate(90) scale(0.5)">
<stop stop-color="#B8D2F1"/>
<stop offset="0.166667" stop-color="#F289AA"/>
<stop offset="0.294697" stop-color="#C68BF0"/>
<stop offset="0.427083" stop-color="#D164DA"/>
<stop offset="0.614583" stop-color="#C963E8"/>
<stop offset="0.71875" stop-color="#BFC2E8"/>
<stop offset="0.802083" stop-color="#FFC999"/>
<stop offset="0.875" stop-color="#D0D8C9"/>
<stop offset="0.928149" stop-color="#BAD0F1"/>
<stop offset="0.997133" stop-color="#CED8CB"/>
<stop offset="1" stop-color="white" stop-opacity="0"/>
</radialGradient>
<clipPath id="clip0_108_73">
<rect width="16" height="16" fill="white" transform="translate(25 22)"/>
</clipPath>
</defs>
</svg>
